<?xml version="1.0" encoding="utf-8"?>
<!-- Generator: Adobe Illustrator 27.2.0, SVG Export Plug-In . SVG Version: 6.00 Build 0)  -->
<svg version="1.1" id="Capa_1" xmlns="http://www.w3.org/2000/svg" xmlns:xlink="http://www.w3.org/1999/xlink" x="0px" y="0px"
	 viewBox="0 0 1920 1800" style="enable-background:new 0 0 1920 1800;" xml:space="preserve">
<style type="text/css">
	.st0{fill:#F2BDCF;}
	.st1{fill:#8E2E53;}
	.st2{fill:#F5A461;}
	.st3{fill:#F39200;}
	.st4{fill:#8F2E53;}
</style>
<rect class="st0" width="1920" height="1863.6"/>
<path class="st1" d="M284.4,0c0,0-107.5,169,0,370.6h442.5c0,0,87.9-180.3,0-370.6H284.4L284.4,0z"/>
<path class="st2" d="M240.1,176c-10.4,0.7-21.3,1.5-30.4,6.9c-7.6,4.5-13.5,13-13.5,22.1c0.1,8.6,6.1,15.6,14.2,17.9
	c7.9,2.2,16.7,0.7,24.5-1.4c3.9-1.1,7.7-2.6,11.6-3.7c3.9-1.1,7.9-2,11.9-2.3c3.8-0.3,7.4-0.1,11,1c3.1,1,5.9,2.9,7.6,5.6
	c4.9,7.6,0.7,17.1-4.8,23.1c-6.8,7.4-16.4,11.4-24.4,17.5c-7.8,6-13.8,14.2-15.5,24.1c-1.6,9.1,0.7,18.7,7.5,25.2
	c6.1,5.8,14.9,8.9,23.2,7c4.3-1,8-3.6,11.4-6.3c3.1-2.5,6.3-5.4,10-7c3-1.2,6.4-0.9,8.6,1.3c2.2,2.1,3,5.7,3.3,8.9
	c0.4,4,0.1,8,0,11.9c-0.1,4.8,0.3,9.7,1.8,14.3c1.5,4.6,3.9,9,7.5,12.2c3.4,3.1,7.7,4.9,12.2,5.5c4.2,0.5,8.8-0.2,12.4-2.7
	c3.7-2.5,5.8-6.3,7.5-10.4c2.5-6.1,5.2-16,13.7-14.3c4.3,0.8,7.9,3.8,10.7,6.9c3.1,3.4,5.1,7.3,7.3,11.2c4.1,7,9.5,15.4,18.1,17.1
	c4.1,0.8,8.3,0.1,11.6-2.4c3.2-2.4,5.6-5.9,6.6-9.8c1-3.8,0.5-7.9-1.5-11.3c-1.7-2.8-6-0.2-4.3,2.5c3.2,5.3,0,13.4-5.7,15.7
	c-7.3,2.9-13.8-3.9-17.6-9.6c-2.4-3.6-4.2-7.4-6.5-11c-2.6-4-5.8-7.7-9.7-10.5c-3.5-2.5-7.8-4.3-12.1-3.8c-4.4,0.5-8,3.1-10.5,6.8
	c-4,6-4.4,15.5-11.3,19.3c-6.9,3.7-15.8,0.3-20.1-5.7c-2.6-3.7-4.1-8-4.8-12.5c-0.6-4.1-0.3-8.3-0.2-12.5c0.1-7.2-0.1-16.3-6.7-20.8
	c-3.3-2.3-7.7-2.6-11.5-1.2c-4,1.5-7.4,4.3-10.6,6.9c-3,2.4-6.2,5.1-9.9,6.2c-3.5,1-7.2,0.9-10.7-0.2c-7.5-2.3-13.1-8.5-14.8-16.2
	c-1.8-8.4,1.2-17.7,6.5-24.2c6.3-7.7,15.5-11.9,23.5-17.4c7.6-5.3,14.6-12.7,16.4-22.2c0.8-4.5,0.3-9-1.9-13.1c-1.8-3.3-4.6-6-8-7.6
	c-7.2-3.5-15.8-2.9-23.4-1.3c-7.8,1.6-15.1,5-23,6.5c-6.9,1.3-15,1.8-20.9-2.5c-2.6-1.9-4.7-5.2-5.2-8.6c-0.6-3.7,0.5-7.6,2.2-10.8
	c4.5-8.3,13.2-12,22.1-13.6c4.8-0.9,9.6-1.2,14.4-1.5c1.4-0.1,2.5-1.1,2.5-2.5C242.6,177.2,241.5,175.9,240.1,176L240.1,176
	L240.1,176z"/>
<path class="st2" d="M728.4,72.8c19,0.6,38.1,1.1,57.2,1.7v-5c-1.9,0-3.7,0-5.6,0c-3.2,0-3.2,5,0,5c1.9,0,3.7,0,5.6,0
	c3.2,0,3.2-4.9,0-5c-19-0.6-38.1-1.1-57.2-1.7C725.2,67.7,725.2,72.7,728.4,72.8L728.4,72.8z"/>
<path class="st2" d="M734.1,104.4c15.7,9.4,30.7,20,44.8,31.8c0.8-1.4,1.6-2.8,2.4-4.2c-5.1-1-10.4,0-14.7,3
	c-1.1,0.8-1.6,2.2-0.9,3.4c0.6,1.1,2.3,1.7,3.4,0.9c3.2-2.2,7-3.2,10.8-2.5c1.1,0.2,2.2-0.1,2.8-1.1c0.5-0.9,0.5-2.3-0.4-3
	c-14.4-12-29.7-23-45.8-32.6C733.8,98.5,731.3,102.8,734.1,104.4L734.1,104.4L734.1,104.4z"/>
<path class="st3" d="M1582.1,117.7c-0.8,9.4,3.3,18.8,10,25.4c7.3,7.2,17.4,10.6,27.5,10.7s20.1-2.8,27.8-8.9
	c7.1-5.6,11-14.5,8.7-23.5c-1.1-4.1-3.5-7.8-7.1-10.1s-7.7-2.8-11.7-1.9c-7.9,1.7-14.8,8.8-16.1,16.8c-1.6,9.7,3.1,19.2,9.8,25.9
	s16.4,12,26.3,13.1c8.6,0.9,17.1-2.1,23.2-8.3c5.2-5.3,8.3-12.2,11-18.9c5.1-12.8,9.5-30.1,23.9-35.5c7.5-2.8,16.3-2.4,23.3,1.5
	s11.8,11.3,12.8,19.5s-1.6,17-7.9,22.7c-3.1,2.8-7.4,4.6-11.3,3.3c-2.2-0.8-4.1-3.1-5-5.4c-2.3-6.3-0.6-13.2,4.6-17.6
	c6.9-5.8,16.8-6.8,25.4-7.5c11.5-0.9,23.2-1.5,34.7-2.8c9.7-1.1,19.9-4.3,24-14.1c1.7-4,1.9-8.6-0.1-12.5c-1.8-3.6-5.4-6-9.3-6.7
	c-8.6-1.4-16.9,4-18.5,12.7c-1.8,9.9,3.8,19.1,12.2,23.9c9.9,5.6,21.1,4.9,32,4.8c9,0,19,1,25.4,8.2c2.6,2.9,3.9,6.9,3.3,10.8
	c-0.7,4.4-3.4,8.3-6.8,11.1c-3.8,3.1-8.7,4.6-13.4,5.3c-4.4,0.7-9.6,1-13.9-0.3c-3.2-0.9-7.2-2.8-8.6-6c-0.4-1-0.4-2,0.4-3.1
	c1.2-1.7,3.5-2.2,5.4-2.6c7.6-1.4,15.7,2.8,20.2,8.8s4.9,13.6,2,20.3s-7.8,11.7-12.6,16.7c-5.2,5.4-10.6,10.6-14.7,16.9
	c-4.4,6.6-6.8,14.4-5.2,22.3c1.7,8.5,7.6,16.2,15.2,20.2c7.7,4.1,19.8,5.3,25.5-2.7c4.7-6.5,2-16.8-4.8-20.7
	c-8.1-4.6-18.7-0.8-23.5,6.8c-5.4,8.6-3.5,19.7,2,27.7s13.1,13,18.4,20.5s7.8,18.1,3.3,26.6c-3.6,6.9-11.9,11.7-19.7,9.7
	c-3.1-0.8-4.4,4-1.3,4.8c8.9,2.2,18.2-2,23.6-9.2c5.9-7.9,5.9-18.8,2.3-27.6s-11.1-15-17.6-21.8s-11.1-14.9-8.5-24.2
	c1.2-4.1,3.8-7.4,7.7-9.2c3.3-1.6,7.5-1.8,10.8,0.1c2.8,1.6,4.5,4.8,4.6,8c0.2,3.6-1.4,6.7-4.8,8.1c-7.7,3.3-16.9-1-22.2-6.7
	s-7.8-13.8-5.7-21.5c1.8-6.7,6.3-12.3,10.9-17.3c4.9-5.4,10.3-10.3,14.8-16s7.9-12.1,8.4-19.4c0.5-8.6-4.1-16.4-10.9-21.5
	s-16.5-7.2-24.2-3.2c-3.7,1.9-6.1,6.2-4.6,10.4c1.4,3.8,4.9,6.5,8.5,8.1c4.3,2,8.7,2.4,13.4,2.3c5.2-0.1,10.5-0.9,15.3-3
	c8.6-3.6,16.1-12.1,15.5-21.9c-0.5-9.2-7.9-15.6-16-18.6c-10.4-3.9-21.6-1.7-32.4-2.5c-9-0.6-19.1-4.1-23.3-12.8
	c-3.3-6.9-1.5-16.6,6.7-18.5c3-0.7,6.5-0.3,8.8,1.9c2.7,2.6,2.8,6.5,1.6,9.8c-3.2,9.1-13.9,11-22.4,11.8c-11.3,1-22.7,1.6-34,2.7
	c-9.2,0.8-18.9,2.4-26.3,8.3c-6,4.8-8.4,12.3-7.2,19.8c1.2,7.1,6.8,13.1,14.4,12.5c9.5-0.7,16.5-9.6,19.2-18.2s1.7-17.5-2.2-25.1
	c-8.1-15.6-29.6-20.4-44.3-11.3c-13.3,8.2-17.2,24.7-22.8,38.1c-2.6,6.2-5.7,12.4-10.9,16.8c-6.6,5.6-15.5,6.2-23.6,3.8
	c-8.8-2.7-17.1-8.8-21.9-16.7c-4.2-7-5.5-16.1,0.3-22.6c4.5-5,12.6-8.1,18.1-2.8s4.6,15-0.1,20.7c-5.8,7.1-15.6,10.6-24.6,11.3
	c-9.5,0.7-19.6-1.6-26.8-8.2c-6.3-5.8-10.2-14.1-9.4-22.8c0.1-1.3-1.2-2.5-2.5-2.5C1583.3,115.2,1582.3,116.4,1582.1,117.7
	L1582.1,117.7L1582.1,117.7z"/>
<path class="st3" d="M1766.9,183.4c8.2-2.7,12.6-10.6,16.1-17.9l-3.9,0.5c3.1,2.5,4,6.6,6.3,9.7c2.8,3.8,7.3,6,12.1,5.7l-0.7-4.9
	c-5.9,1.5-10.6,5.8-13.8,10.9c-3.5,5.8-5,12.5-6.4,19h4.8c-1.3-5.6-2.8-11.4-5-16.7c-0.9-2.3-2.1-4.5-3.7-6.4
	c-0.8-1-1.7-1.8-2.8-2.5c-0.4-0.3-0.9-0.6-1.3-0.8c-0.3-0.2-0.7-0.4-1.1-0.5c-0.4-0.1-0.3-0.3-0.2,0.1l0.3,1.3l-0.2,0.5l-0.9,0.9
	l0.2-0.1c2.9-1.4,0.3-5.8-2.5-4.3c-1.7,0.8-2.1,3-1.2,4.6c0.8,1.3,2.3,1.5,3.5,2.2c2.1,1.2,3.3,3.3,4.4,5.3c1.2,2.5,2,5.1,2.8,7.8
	c1,3.3,1.9,6.7,2.7,10.1c0.6,2.4,4.3,2.4,4.8,0c2.2-10,5.2-23.4,16.7-26.4c2.7-0.7,2.2-5.1-0.7-4.9c-3.7,0.2-6.8-1.5-8.7-4.7
	s-3.1-6.9-6.1-9.3c-1.1-0.9-3.2-1.1-3.9,0.5c-2.8,6-6.2,13.4-13.1,15.6C1762.5,179.6,1763.8,184.4,1766.9,183.4L1766.9,183.4
	L1766.9,183.4z"/>
<path class="st3" d="M1795.5,209.6l-0.2-0.2c-0.2-0.2-0.5-0.4-0.8-0.5c-0.3-0.2-0.6-0.2-1-0.2c-0.3,0-0.7,0.1-1,0.2
	c-0.3,0.1-0.6,0.3-0.8,0.5l-0.4,0.5c-0.2,0.4-0.3,0.8-0.3,1.3l0.1,0.7c0.1,0.4,0.3,0.8,0.6,1.1l0.2,0.2c0.2,0.2,0.5,0.4,0.8,0.5
	c0.3,0.2,0.6,0.2,1,0.2c0.3,0,0.7-0.1,1-0.2c0.3-0.1,0.6-0.3,0.8-0.5l0.4-0.5c0.2-0.4,0.3-0.8,0.3-1.3l-0.1-0.7
	C1796,210.3,1795.8,209.9,1795.5,209.6L1795.5,209.6z"/>
<path class="st3" d="M1749.6,194.6c0.2,6.1,0.4,12.2,0.7,18.4l4.9-0.7c-0.2-0.6-0.4-1.1-0.6-1.7c-0.5-1.3-1.7-2.1-3.1-1.8
	c-1.2,0.3-2.2,1.8-1.8,3.1c0.2,0.6,0.4,1.1,0.6,1.7c0.4,1.2,1.4,2,2.7,1.8c1.2-0.2,2.2-1.2,2.2-2.5c-0.2-6.1-0.4-12.2-0.7-18.4
	c-0.1-1.4-1.1-2.5-2.5-2.5S1749.6,193.2,1749.6,194.6L1749.6,194.6L1749.6,194.6z"/>
<path class="st3" d="M1745,204.9c5.5-1.1,11.6-0.4,17.1-2.5c1.2-0.4,2-1.4,1.8-2.7c-0.2-1.1-1.2-2.3-2.5-2.2c-0.3,0-0.6,0.1-0.9,0.1
	c-1.3,0.1-2.5,1.1-2.5,2.5c0,1.3,1.2,2.6,2.5,2.5c0.3,0,0.6-0.1,0.9-0.1l-0.7-4.9c-5.4,2-11.4,1.3-17.1,2.5
	c-1.3,0.3-2.1,1.8-1.8,3.1C1742.3,204.6,1743.7,205.2,1745,204.9L1745,204.9L1745,204.9z"/>
<path class="st3" d="M1759.4,229.1c4.8-0.8,6.5-5.7,7.2-9.9l-4.6,0.6c1,2.2,2.1,4.4,4,6c2,1.7,4.6,2.5,7.2,1.8l-1.9-4.6
	c-5.4,3-8.8,8.9-8.9,15.1h5c-0.3-3.1-0.8-6.3-3.1-8.6c-2.1-2-4.9-3-7.6-3.8l-0.7,4.9c3.7-0.2,7.1-1.2,10.3-3l-3.4-3.4l-1.9,2.6
	c-0.7,1-0.3,2.6,0.6,3.2c1.1,0.8,2.3,0.6,3.3-0.2c0.6-0.5,1.1-1.1,1.5-1.7l-4.3-2.5l-0.1,0.2l0.9-0.9l-0.2,0.1l1.3-0.3l-0.2,0
	l1.3,0.3l-0.2-0.1c-1.2-0.6-2.7-0.3-3.4,0.9c-0.6,1.1-0.3,2.8,0.9,3.4c1.5,0.7,3.3,0.5,4.1-1.1c1.4-2.9-2.6-5.2-4.3-2.5
	c-0.2,0.3-0.4,0.5-0.7,0.7l3.9,3l1.9-2.6c0.7-0.9,0.3-2.3-0.4-3c-0.8-0.8-2.1-0.9-3-0.4c-2.4,1.3-5.1,2.1-7.8,2.3s-3.4,4.1-0.7,4.9
	c1,0.3,2.1,0.6,3.1,1c0.5,0.2,1.7,0.9,2.1,1.3c0.7,0.6,1.1,1.2,1.4,2.2c0.3,1.1,0.4,2,0.5,3.1c0.1,1.3,1.1,2.5,2.5,2.5
	c1.4,0,2.5-1.1,2.5-2.5c0-4.4,2.5-8.6,6.4-10.7c2.5-1.4,0.8-5.3-1.9-4.6c-0.5,0.1-0.8,0.1-1.5-0.1c-0.4-0.2-1.1-0.6-1.5-1.1
	c-1.2-1.2-1.8-2.9-2.5-4.4c-0.8-1.9-4.2-1.5-4.6,0.6c-0.1,0.8-0.3,1.5-0.4,2.3c-0.1,0.4-0.2,0.7-0.3,1.1c-0.1,0.2-0.1,0.3-0.2,0.5
	c0,0.1-0.2,0.6-0.1,0.3c-0.2,0.3-0.3,0.6-0.5,0.9c-0.1,0.1-0.2,0.3-0.1,0.1c-0.1,0.1-0.2,0.3-0.3,0.4c-0.4,0.4-0.2,0.3-0.6,0.5
	c-0.4,0.2-0.7,0.3-1.2,0.3c-1.3,0.2-2.1,1.9-1.8,3.1C1756.8,228.8,1758.1,229.4,1759.4,229.1L1759.4,229.1L1759.4,229.1z"/>
<path class="st3" d="M39.2,1057v5.6c0,3.2,5,3.2,5,0V887.2c0-3.2-5-3.2-5,0v175.4c0,3.2,5,3.2,5,0v-5.6
	C44.2,1053.8,39.2,1053.8,39.2,1057L39.2,1057z"/>
<path class="st3" d="M66.9,1037.3V811.4c0-3.2-5-3.2-5,0v225.8C61.9,1040.5,66.9,1040.5,66.9,1037.3L66.9,1037.3z"/>
<path class="st3" d="M85.1,1020.6c0-25.5,0-51.1,0-76.6c0-7.3,0-14.6,0-21.9c0-3.2-5-3.2-5,0c0,25.5,0,51.1,0,76.6
	c0,7.3,0,14.6,0,21.9C80.1,1023.8,85.1,1023.8,85.1,1020.6L85.1,1020.6z"/>
<path class="st4" d="M1853.6,566.9v239.5c0,3.2,5,3.2,5,0V566.9C1858.6,563.7,1853.6,563.7,1853.6,566.9L1853.6,566.9z"/>
<path class="st4" d="M1826.3,639.7v280.4c0,3.2,5,3.2,5,0V639.7C1831.3,636.5,1826.3,636.5,1826.3,639.7L1826.3,639.7L1826.3,639.7z
	"/>
<path class="st4" d="M1805.1,729.1c0,32.8,0,65.6,0,98.3c0,9.2,0,18.3,0,27.5c0,3.2,5,3.2,5,0c0-32.8,0-65.6,0-98.3
	c0-9.2,0-18.3,0-27.5C1810.1,725.9,1805.1,725.9,1805.1,729.1L1805.1,729.1z"/>
<path class="st4" d="M1784.3,684.6c9-3.9,15.2-12.6,16.4-22.2l-4.9,0.7c1.4,4.7,2.9,9.5,6,13.5s6.7,6.3,11.5,7l-0.7-4.9
	c-10.1,2.5-17.7,12.2-17.7,22.6l4.9-0.7c-1-5-3.3-9.6-6.5-13.6c-1.6-1.9-3.4-3.6-5.3-5.1c-2.3-1.7-5-3.2-7.5-1.1
	c-1,0.9-0.9,2.6,0,3.5c1,1,2.5,0.9,3.5,0c-1.1,0.2-1.3,0.3-0.6,0.4c0.1,0.1,0.2,0.2,0.3,0.2c0.4,0.2,0.9,0.6,1.3,0.9
	c0.7,0.5,1.3,1,1.9,1.6c1.4,1.2,2.6,2.6,3.7,4.1c2.2,3.1,3.7,6.6,4.5,10.3c0.6,2.8,4.9,2.1,4.9-0.7c0.1-8.2,6.1-15.8,14.1-17.8
	c1.2-0.3,2-1.5,1.8-2.7c-0.2-1.3-1.2-2-2.5-2.2c-3.3-0.4-6.1-2.9-7.9-5.5c-2.3-3.4-3.5-7.4-4.7-11.3c-0.4-1.2-1.5-2-2.7-1.8
	c-1.3,0.2-2,1.2-2.2,2.5c-1,8-6.7,14.8-13.9,17.9c-1.2,0.5-1.5,2.4-0.9,3.4C1781.6,685,1783.1,685.2,1784.3,684.6L1784.3,684.6
	L1784.3,684.6z"/>
<path class="st4" d="M1768.9,666.8c-4.9,0-9.8,0-14.8,0c-1.3,0-2.6,1.2-2.5,2.5s1.1,2.5,2.5,2.5c4.9,0,9.8,0,14.8,0
	c1.3,0,2.6-1.2,2.5-2.5S1770.3,666.8,1768.9,666.8L1768.9,666.8z"/>
<path class="st4" d="M1785.6,654.2h-14.3c-1.3,0-2.6,1.2-2.5,2.5s1.1,2.5,2.5,2.5h1.4c1.3,0,2.6-1.2,2.5-2.5s-1.1-2.5-2.5-2.5h-1.4
	c-1.3,0-2.6,1.2-2.5,2.5s1.1,2.5,2.5,2.5h14.3c1.3,0,2.6-1.2,2.5-2.5S1787,654.2,1785.6,654.2L1785.6,654.2z"/>
<path class="st4" d="M1797.3,638.3c-3.9,0-7.8,0-11.8,0c-1.3,0-2.6,1.2-2.5,2.5s1.1,2.5,2.5,2.5c3.9,0,7.8,0,11.8,0
	c1.3,0,2.6-1.2,2.5-2.5S1798.7,638.3,1797.3,638.3L1797.3,638.3z"/>
<path class="st3" d="M72.5,1055.1c24,0,48,0,72,0c6.8,0,13.7,0,20.5,0c3.2,0,3.2-5,0-5c-24,0-48,0-72,0c-6.8,0-13.7,0-20.5,0
	C69.3,1050.1,69.3,1055.1,72.5,1055.1L72.5,1055.1L72.5,1055.1z"/>
</svg>
