<?xml version="1.0" encoding="UTF-8"?>
<svg id="Capa_1" data-name="Capa 1" xmlns="http://www.w3.org/2000/svg" viewBox="0 0 1920 1800">
  <defs>
    <style>
      .cls-1 {
        fill: #f39200;
      }

      .cls-2 {
        fill: #8e2e53;
      }

      .cls-3 {
        fill: #8f2e53;
      }

      .cls-4 {
        fill: #f5a461;
      }

      .cls-5 {
        fill: #f2a1b8;
        stroke: #010101;
        stroke-miterlimit: 10;
      }
    </style>
  </defs>
  <rect class="cls-5" width="1920" height="1863.61"/>
  <path class="cls-2" d="m284.41,0s-107.5,168.96,0,370.56h442.49s87.92-180.27,0-370.56h-442.49Z"/>
  <path class="cls-4" d="m240.13,176.02c-10.35.69-21.26,1.5-30.41,6.9-7.64,4.51-13.52,13.04-13.46,22.11.05,8.6,6.07,15.6,14.19,17.87,7.94,2.22,16.69.74,24.47-1.45,3.91-1.1,7.69-2.61,11.59-3.73,3.89-1.11,7.87-1.97,11.91-2.26,3.78-.27,7.41-.14,10.97.99,3.08.98,5.88,2.88,7.65,5.65,4.86,7.61.66,17.05-4.82,23.08-6.77,7.44-16.45,11.42-24.35,17.46-7.84,5.99-13.8,14.18-15.47,24.07-1.55,9.13.66,18.71,7.49,25.24,6.05,5.78,14.91,8.91,23.19,6.97,4.34-1.01,7.95-3.61,11.39-6.32,3.15-2.48,6.26-5.43,10.01-6.99,2.96-1.24,6.38-.91,8.62,1.27,2.18,2.12,2.99,5.67,3.28,8.86.36,3.97.15,7.96.02,11.94-.15,4.81.33,9.72,1.8,14.32,1.47,4.58,3.92,8.99,7.51,12.25,3.38,3.07,7.67,4.92,12.18,5.49,4.23.53,8.81-.24,12.38-2.66,3.7-2.51,5.83-6.31,7.51-10.35,2.53-6.08,5.18-15.98,13.72-14.34,4.28.82,7.85,3.8,10.71,6.93,3.06,3.36,5.08,7.31,7.34,11.21,4.07,7.03,9.52,15.41,18.12,17.11,4.09.81,8.26.09,11.63-2.43,3.21-2.4,5.58-5.9,6.56-9.8.96-3.81.55-7.88-1.49-11.27-1.66-2.75-5.98-.24-4.32,2.52,3.22,5.34.02,13.38-5.72,15.68-7.28,2.92-13.77-3.93-17.57-9.63-2.38-3.57-4.23-7.43-6.52-11.04-2.57-4.05-5.81-7.7-9.7-10.53-3.45-2.52-7.8-4.31-12.14-3.8-4.43.53-8.04,3.15-10.46,6.82-3.98,6.04-4.42,15.52-11.33,19.28-6.85,3.73-15.8.27-20.1-5.74-2.64-3.68-4.1-8.02-4.77-12.47-.62-4.14-.29-8.31-.21-12.47.15-7.21-.08-16.31-6.69-20.83-3.32-2.27-7.72-2.62-11.45-1.24-4.02,1.49-7.35,4.27-10.65,6.92-3.01,2.42-6.16,5.07-9.92,6.2-3.51,1.05-7.18.85-10.69-.24-7.49-2.33-13.15-8.5-14.77-16.16-1.79-8.42,1.17-17.67,6.54-24.24,6.28-7.67,15.53-11.88,23.51-17.44,7.63-5.31,14.65-12.67,16.38-22.16.82-4.47.33-9.04-1.88-13.06-1.81-3.29-4.65-5.99-8.03-7.63-7.25-3.5-15.79-2.88-23.45-1.3-7.82,1.62-15.12,4.99-22.98,6.48-6.93,1.32-15.04,1.75-20.85-2.46-2.64-1.91-4.68-5.17-5.21-8.63-.56-3.66.47-7.56,2.23-10.8,4.5-8.29,13.18-11.99,22.07-13.64,4.77-.89,9.61-1.21,14.44-1.53,1.35-.09,2.5-1.09,2.5-2.5,0-1.26-1.14-2.57-2.5-2.48h0Z"/>
  <path class="cls-4" d="m728.41,72.79c19.05.56,38.1,1.11,57.15,1.67v-5c-1.87-.01-3.74-.03-5.61-.04-3.22-.02-3.22,4.98,0,5,1.87.01,3.74.03,5.61.04,3.22.02,3.21-4.91,0-5-19.05-.56-38.1-1.11-57.15-1.67-3.21-.09-3.21,4.91,0,5h0Z"/>
  <path class="cls-4" d="m734.07,104.43c15.74,9.41,30.74,20.03,44.8,31.8.81-1.39,1.62-2.79,2.43-4.18-5.1-.96-10.4,0-14.68,3.01-1.1.77-1.62,2.19-.9,3.42.64,1.09,2.31,1.68,3.42.9,3.15-2.21,7.01-3.22,10.83-2.51,1.1.21,2.23-.14,2.82-1.15.53-.9.45-2.33-.39-3.03-14.39-12.04-29.7-22.96-45.81-32.59-2.76-1.64-5.28,2.68-2.52,4.33h0Z"/>
  <path class="cls-1" d="m1582.14,117.73c-.82,9.45,3.31,18.84,9.98,25.43,7.26,7.17,17.4,10.6,27.49,10.66s20.05-2.82,27.79-8.95c7.07-5.61,11.04-14.53,8.72-23.49-1.06-4.11-3.51-7.82-7.1-10.14s-7.71-2.75-11.69-1.89c-7.86,1.7-14.79,8.8-16.13,16.75-1.64,9.71,3.12,19.15,9.79,25.94s16.39,12.04,26.29,13.08c8.61.91,17.12-2.09,23.17-8.29,5.16-5.3,8.27-12.16,10.99-18.93,5.14-12.83,9.51-30.08,23.93-35.49,7.52-2.82,16.27-2.37,23.35,1.49s11.84,11.32,12.75,19.47-1.59,17.02-7.86,22.67c-3.1,2.79-7.41,4.64-11.34,3.26-2.23-.78-4.12-3.08-4.98-5.41-2.31-6.29-.59-13.21,4.59-17.58,6.87-5.79,16.76-6.76,25.36-7.46,11.54-.94,23.16-1.47,34.66-2.78,9.73-1.11,19.95-4.31,24.03-14.11,1.67-4.01,1.88-8.55-.08-12.5-1.78-3.58-5.38-6-9.28-6.65-8.61-1.45-16.88,3.97-18.47,12.68-1.8,9.87,3.75,19.12,12.23,23.9,9.87,5.56,21.05,4.89,31.98,4.85,9-.04,19.02,1.01,25.38,8.19,2.61,2.95,3.9,6.93,3.26,10.84-.72,4.4-3.36,8.31-6.77,11.1-3.77,3.08-8.66,4.61-13.41,5.32-4.45.66-9.58.99-13.95-.27-3.16-.92-7.23-2.82-8.64-6.02-.44-.99-.42-2.01.39-3.11,1.21-1.66,3.5-2.24,5.41-2.6,7.61-1.43,15.72,2.75,20.2,8.8s4.94,13.56,2.04,20.3-7.8,11.73-12.62,16.72c-5.18,5.36-10.59,10.61-14.71,16.87-4.36,6.62-6.75,14.39-5.2,22.31,1.66,8.48,7.59,16.17,15.17,20.22,7.65,4.08,19.83,5.29,25.54-2.66,4.66-6.5,1.98-16.76-4.82-20.66-8.05-4.62-18.74-.77-23.48,6.78-5.39,8.57-3.47,19.72,2.02,27.7s13.06,13.04,18.44,20.55,7.84,18.12,3.35,26.65c-3.64,6.92-11.88,11.7-19.71,9.72-3.12-.79-4.45,4.03-1.33,4.82,8.93,2.25,18.18-1.98,23.56-9.19,5.88-7.87,5.92-18.83,2.26-27.63s-11.13-14.98-17.59-21.83-11.13-14.9-8.52-24.16c1.15-4.08,3.84-7.37,7.7-9.17,3.34-1.56,7.51-1.81,10.78.07,2.79,1.6,4.47,4.84,4.64,7.99.19,3.57-1.39,6.69-4.81,8.15-7.73,3.31-16.93-.96-22.22-6.69s-7.8-13.83-5.68-21.5c1.84-6.67,6.31-12.27,10.93-17.29,4.92-5.35,10.32-10.3,14.82-16.02s7.93-12.07,8.36-19.41c.5-8.59-4.12-16.45-10.86-21.48s-16.54-7.17-24.22-3.22c-3.73,1.92-6.12,6.24-4.62,10.36,1.37,3.78,4.93,6.46,8.47,8.07,4.31,1.97,8.7,2.39,13.4,2.27,5.22-.13,10.49-.93,15.33-2.96,8.62-3.61,16.07-12.05,15.5-21.89-.54-9.2-7.87-15.58-16.01-18.63-10.37-3.89-21.64-1.72-32.41-2.49-9.01-.64-19.08-4.12-23.28-12.77-3.35-6.9-1.54-16.58,6.74-18.54,2.96-.7,6.51-.28,8.79,1.88,2.73,2.58,2.82,6.49,1.64,9.84-3.24,9.14-13.95,11.03-22.4,11.78-11.32,1-22.68,1.64-34,2.68-9.22.85-18.87,2.39-26.3,8.35-5.99,4.81-8.45,12.33-7.15,19.83,1.22,7.06,6.8,13.12,14.38,12.54,9.54-.73,16.51-9.62,19.16-18.16s1.73-17.47-2.24-25.1c-8.11-15.59-29.59-20.39-44.28-11.32-13.26,8.19-17.16,24.69-22.77,38.13-2.58,6.19-5.74,12.4-10.92,16.79-6.57,5.56-15.51,6.23-23.56,3.77-8.84-2.7-17.08-8.76-21.89-16.7-4.23-7-5.51-16.12.29-22.63,4.47-5.01,12.64-8.11,18.12-2.79s4.59,14.96-.05,20.67c-5.81,7.15-15.63,10.61-24.58,11.29-9.52.73-19.57-1.62-26.75-8.19-6.34-5.8-10.18-14.1-9.43-22.76.12-1.35-1.23-2.5-2.5-2.5-1.45,0-2.38,1.15-2.5,2.5h0Z"/>
  <path class="cls-1" d="m1766.88,183.44c8.25-2.66,12.59-10.57,16.05-17.93l-3.93.51c3.08,2.5,3.99,6.63,6.3,9.74,2.81,3.78,7.32,6.01,12.07,5.69l-.66-4.91c-5.89,1.52-10.62,5.79-13.76,10.89-3.54,5.75-5.02,12.47-6.42,18.98h4.82c-1.31-5.63-2.77-11.37-4.97-16.73-.95-2.31-2.07-4.48-3.67-6.42-.8-.97-1.73-1.8-2.76-2.52-.43-.3-.87-.56-1.34-.79-.34-.16-.71-.37-1.08-.47-.44-.12-.34-.31-.15.09l.34,1.26-.17.5-.9.9.23-.11c2.88-1.43.35-5.75-2.52-4.32-1.66.83-2.09,3.01-1.17,4.55.79,1.32,2.29,1.54,3.51,2.25,2.05,1.19,3.35,3.27,4.36,5.34,1.2,2.46,1.98,5.14,2.78,7.75,1.01,3.32,1.9,6.67,2.69,10.05.55,2.36,4.3,2.41,4.82,0,2.15-10,5.19-23.41,16.69-26.38,2.67-.69,2.2-5.1-.66-4.91-3.73.25-6.84-1.52-8.74-4.7s-3.11-6.85-6.09-9.26c-1.13-.92-3.18-1.09-3.93.51-2.81,5.98-6.25,13.44-13.06,15.64-3.05.98-1.75,5.81,1.33,4.82h0Z"/>
  <path class="cls-1" d="m1795.47,209.57l-.25-.25c-.23-.24-.49-.42-.8-.52-.3-.16-.62-.23-.96-.22-.34-.01-.67.06-.96.22-.31.1-.58.27-.8.52l-.39.51c-.23.39-.34.81-.34,1.26l.09.66c.12.42.33.79.64,1.1l.25.25c.23.24.49.42.8.52.3.16.62.23.96.22.34.01.67-.06.96-.22.31-.1.58-.27.8-.52l.39-.51c.23-.39.34-.81.34-1.26l-.09-.66c-.12-.42-.33-.79-.64-1.1h0Z"/>
  <path class="cls-1" d="m1749.62,194.58c.23,6.12.45,12.24.68,18.36l4.91-.66c-.21-.56-.42-1.11-.63-1.67-.47-1.26-1.69-2.13-3.08-1.75-1.21.33-2.22,1.8-1.75,3.08.21.56.42,1.11.63,1.67.44,1.16,1.45,1.99,2.74,1.79,1.18-.18,2.21-1.19,2.17-2.46-.23-6.12-.45-12.24-.68-18.36-.05-1.35-1.11-2.5-2.5-2.5s-2.55,1.14-2.5,2.5h0Z"/>
  <path class="cls-1" d="m1745.02,204.93c5.5-1.13,11.61-.45,17.11-2.47,1.17-.43,1.98-1.45,1.79-2.74-.17-1.13-1.2-2.28-2.46-2.17-.3.03-.6.06-.91.08-1.34.13-2.5,1.06-2.5,2.5,0,1.26,1.15,2.63,2.5,2.5.3-.03.6-.06.91-.08l-.66-4.91c-5.45,2-11.37,1.29-17.11,2.47-1.32.27-2.09,1.84-1.75,3.08.38,1.37,1.75,2.02,3.08,1.75h0Z"/>
  <path class="cls-1" d="m1759.42,229.14c4.78-.83,6.47-5.66,7.16-9.85l-4.57.6c.98,2.17,2.08,4.45,3.96,5.99,2.04,1.67,4.59,2.53,7.21,1.84l-1.93-4.57c-5.4,3-8.85,8.9-8.88,15.06h5c-.28-3.14-.75-6.32-3.11-8.64-2.06-2.03-4.87-2.98-7.58-3.78l-.66,4.91c3.65-.21,7.14-1.2,10.34-2.99l-3.42-3.42-1.92,2.6c-.73.99-.26,2.55.64,3.23,1.05.79,2.3.62,3.28-.2.59-.49,1.06-1.08,1.47-1.72l-4.32-2.52-.09.19.9-.9-.18.11,1.26-.34-.21.02,1.26.34-.19-.09c-1.22-.58-2.7-.33-3.42.9-.64,1.09-.33,2.83.9,3.42,1.46.7,3.3.47,4.09-1.13,1.42-2.88-2.56-5.25-4.32-2.52-.19.3-.41.48-.69.71l3.93,3.03,1.92-2.6c.65-.88.33-2.31-.39-3.03-.79-.79-2.06-.93-3.03-.39-2.41,1.34-5.06,2.14-7.81,2.3s-3.45,4.09-.66,4.91c1.03.31,2.08.61,3.07,1.03.54.23,1.67.88,2.1,1.27.68.62,1.08,1.25,1.36,2.19.31,1.08.4,2,.5,3.11.12,1.34,1.06,2.5,2.5,2.5,1.36,0,2.49-1.14,2.5-2.5.02-4.38,2.46-8.56,6.41-10.74,2.5-1.39.8-5.29-1.93-4.57-.49.13-.81.15-1.52-.11-.45-.17-1.06-.61-1.49-1.05-1.16-1.21-1.84-2.86-2.52-4.37-.85-1.89-4.23-1.47-4.57.6-.13.76-.26,1.52-.44,2.27-.09.36-.18.71-.29,1.06-.05.17-.11.34-.17.51-.02.05-.23.55-.1.27-.15.32-.32.62-.5.92-.05.08-.22.33-.06.12-.1.13-.22.26-.34.38-.37.37-.21.26-.61.48-.36.19-.74.27-1.15.34-1.33.23-2.08,1.86-1.75,3.08.39,1.41,1.74,1.98,3.08,1.75h0Z"/>
  <path class="cls-1" d="m39.15,1056.98v5.6c0,3.22,5,3.22,5,0v-175.37c0-3.22-5-3.22-5,0v175.37c0,3.22,5,3.22,5,0v-5.6c0-3.22-5-3.22-5,0h0Z"/>
  <path class="cls-1" d="m66.89,1037.27v-225.85c0-3.22-5-3.22-5,0v225.85c0,3.22,5,3.22,5,0h0Z"/>
  <path class="cls-1" d="m85.08,1020.6c0-25.54,0-51.09,0-76.63,0-7.3,0-14.6,0-21.89,0-3.22-5-3.22-5,0,0,25.54,0,51.09,0,76.63,0,7.3,0,14.6,0,21.89,0,3.22,5,3.22,5,0h0Z"/>
  <path class="cls-3" d="m1853.55,566.93v239.49c0,3.22,5,3.22,5,0v-239.49c0-3.22-5-3.22-5,0h0Z"/>
  <path class="cls-3" d="m1826.27,639.69v280.42c0,3.22,5,3.22,5,0v-280.42c0-3.22-5-3.22-5,0h0Z"/>
  <path class="cls-3" d="m1805.05,729.12c0,32.78,0,65.57,0,98.35,0,9.15,0,18.31,0,27.46,0,3.22,5,3.22,5,0,0-32.78,0-65.57,0-98.35,0-9.15,0-18.31,0-27.46,0-3.22-5-3.22-5,0h0Z"/>
  <path class="cls-3" d="m1784.32,684.61c9.03-3.86,15.19-12.62,16.42-22.25l-4.91.66c1.44,4.7,2.95,9.55,5.98,13.5s6.74,6.34,11.48,6.96l-.66-4.91c-10.12,2.54-17.65,12.22-17.73,22.64l4.91-.66c-1.03-5-3.33-9.62-6.54-13.57-1.56-1.93-3.37-3.6-5.35-5.1-2.26-1.72-4.97-3.24-7.51-1.09-1.03.87-.9,2.64,0,3.54,1.02,1.02,2.5.88,3.54,0-1.07.15-1.28.29-.63.43.09.1.2.18.34.22.44.25.86.58,1.27.88.66.48,1.28,1.02,1.89,1.57,1.36,1.25,2.62,2.62,3.69,4.13,2.21,3.12,3.7,6.59,4.47,10.33.58,2.81,4.89,2.1,4.91-.66.06-8.25,6.08-15.81,14.06-17.81,1.19-.3,1.97-1.55,1.79-2.74-.2-1.33-1.18-2-2.46-2.17-3.26-.42-6.14-2.9-7.93-5.52-2.32-3.41-3.52-7.36-4.72-11.27-.36-1.18-1.5-1.98-2.74-1.79-1.33.2-2.01,1.18-2.17,2.46-1.01,7.96-6.66,14.83-13.94,17.94-1.24.53-1.52,2.36-.9,3.42.75,1.28,2.17,1.43,3.42.9h0Z"/>
  <path class="cls-3" d="m1768.89,666.75c-4.93,0-9.85,0-14.78,0-1.31,0-2.56,1.15-2.5,2.5s1.1,2.5,2.5,2.5c4.93,0,9.85,0,14.78,0,1.31,0,2.56-1.15,2.5-2.5s-1.1-2.5-2.5-2.5h0Z"/>
  <path class="cls-3" d="m1785.57,654.24h-14.29c-1.31,0-2.56,1.15-2.5,2.5s1.1,2.5,2.5,2.5h1.41c1.31,0,2.56-1.15,2.5-2.5s-1.1-2.5-2.5-2.5h-1.41c-1.31,0-2.56,1.15-2.5,2.5s1.1,2.5,2.5,2.5h14.29c1.31,0,2.56-1.15,2.5-2.5s-1.1-2.5-2.5-2.5h0Z"/>
  <path class="cls-3" d="m1797.32,638.32c-3.92,0-7.83,0-11.75,0-1.31,0-2.56,1.15-2.5,2.5s1.1,2.5,2.5,2.5c3.92,0,7.83,0,11.75,0,1.31,0,2.56-1.15,2.5-2.5s-1.1-2.5-2.5-2.5h0Z"/>
  <path class="cls-1" d="m72.54,1055.12c23.99,0,47.98,0,71.97,0,6.83,0,13.66,0,20.49,0,3.22,0,3.22-5,0-5-23.99,0-47.98,0-71.97,0-6.83,0-13.66,0-20.49,0-3.22,0-3.22,5,0,5h0Z"/>
</svg>